<svg xmlns="http://www.w3.org/2000/svg"  viewBox="0 0 24 24" width="24px" height="24px"><path d="M 4.5 0 C 4.2236328 0 4 0.2236328 4 0.5 L 4 23.5 C 4 23.776367 4.2236328 24 4.5 24 L 19.5 24 C 19.776367 24 20 23.776367 20 23.5 L 20 0.5 C 20 0.2236328 19.776367 0 19.5 0 L 4.5 0 z M 5 1 L 19 1 L 19 4 L 14.742188 4 C 13.807617 4 12.929199 4.3642578 12.267578 5.0253906 L 11.025391 6.2675781 C 10.552734 6.7402344 9.925293 7 9.2578125 7 L 5 7 L 5 1 z M 8 2 C 6.8969727 2 6 2.8974609 6 4 C 6 5.1025391 6.8969727 6 8 6 C 9.1030273 6 10 5.1025391 10 4 C 10 2.8974609 9.1030273 2 8 2 z M 11.5 2 A 0.5 0.5 0 0 0 11.5 3 A 0.5 0.5 0 0 0 11.5 2 z M 13.5 2 A 0.5 0.5 0 0 0 13.5 3 A 0.5 0.5 0 0 0 13.5 2 z M 15.5 2 A 0.5 0.5 0 0 0 15.5 3 A 0.5 0.5 0 0 0 15.5 2 z M 8 3 C 8.5512695 3 9 3.4482422 9 4 C 9 4.5517578 8.5512695 5 8 5 C 7.4487305 5 7 4.5517578 7 4 C 7 3.4482422 7.4487305 3 8 3 z M 14.742188 5 L 17 5 L 17 23 L 5 23 L 5 8 L 9.2578125 8 C 10.192383 8 11.070801 7.6357422 11.732422 6.9746094 L 12.974609 5.7324219 C 13.447266 5.2597656 14.074707 5 14.742188 5 z M 18 5 L 19 5 L 19 7 L 18 7 L 18 5 z M 18 8 L 19 8 L 19 20 L 18 20 L 18 8 z M 6.5976562 13.009766 C 6.5027466 12.991211 6.4023437 13.001465 6.3085938 13.039062 C 6.1215821 13.116211 6 13.297852 6 13.5 L 6 15.5 C 6 15.702148 6.1215819 15.885742 6.3085938 15.962891 C 6.3706055 15.988281 6.4355469 16 6.5 16 C 6.6298828 16 6.7578125 15.949219 6.8535156 15.853516 L 7.8535156 14.853516 C 8.0488281 14.658203 8.0488281 14.341797 7.8535156 14.146484 L 6.8535156 13.146484 C 6.7819824 13.074707 6.6925659 13.02832 6.5976562 13.009766 z M 9.5 21 C 9.2236328 21 9 21.223633 9 21.5 C 9 21.776367 9.2236328 22 9.5 22 L 14.5 22 C 14.776367 22 15 21.776367 15 21.5 C 15 21.223633 14.776367 21 14.5 21 L 9.5 21 z M 18 21 L 19 21 L 19 23 L 18 23 L 18 21 z"/></svg>